<mxfile host="app.diagrams.net" agent="Mozilla/5.0 (Windows NT 10.0; Win64; x64) AppleWebKit/537.36 (KHTML, like Gecko) Chrome/128.0.0.0 Safari/537.36" version="24.7.13">
  <diagram name="Página-1" id="Zio_2YhxLnwynwJEDOs4">
    <mxGraphModel grid="1" page="1" gridSize="10" guides="1" tooltips="1" connect="1" arrows="1" fold="1" pageScale="1" pageWidth="827" pageHeight="1169" math="0" shadow="0">
      <root>
        <mxCell id="0" />
        <mxCell id="1" parent="0" />
        <mxCell id="gXDINnruX9Vw-Q4mHqaS-1" value="Api rest full&#xa;" style="shape=image;verticalLabelPosition=bottom;verticalAlign=top;imageAspect=0;aspect=fixed;image=data:image/svg+xml,PHN2ZyB4bWxucz0iaHR0cDovL3d3dy53My5vcmcvMjAwMC9zdmciIHZlcnNpb249IjEiIHZpZXdCb3g9IjAgMCA0OCA0OCIgZW5hYmxlLWJhY2tncm91bmQ9Im5ldyAwIDAgNDggNDgiPiYjeGE7ICAgIDxnIGZpbGw9IiNEMUM0RTkiPiYjeGE7ICAgICAgICA8cGF0aCBkPSJNMzgsN0gxMEM4LjksNyw4LDcuOSw4LDl2NmMwLDEuMSwwLjksMiwyLDJoMjhjMS4xLDAsMi0wLjksMi0yVjlDNDAsNy45LDM5LjEsNywzOCw3eiIvPiYjeGE7ICAgICAgICA8cGF0aCBkPSJNMzgsMTlIMTBjLTEuMSwwLTIsMC45LTIsMnY2YzAsMS4xLDAuOSwyLDIsMmgyNS4xYzEuMy0xLjMsNC45LTAuOSw0LjktMnYtNkM0MCwxOS45LDM5LjEsMTksMzgsMTl6Ii8+JiN4YTsgICAgICAgIDxwYXRoIGQ9Ik0zNC40LDMxSDEwYy0xLjEsMC0yLDAuOS0yLDJ2NmMwLDEuMSwwLjksMiwyLDJoMjhjMS4xLDAsMi0wLjksMi0ydi0yLjRDNDAsMzMuNSwzNy41LDMxLDM0LjQsMzF6Ii8+JiN4YTsgICAgPC9nPiYjeGE7ICAgIDxwYXRoIGZpbGw9IiMwMDk2ODgiIGQ9Ik00NiwyNUgzMmMtMS4xLDAtMiwwLjktMiwydjExLjhjMCwxLjMsMC42LDIuNCwxLjYsMy4ybDcuNCw1LjVsNy40LTUuNWMxLTAuOCwxLjYtMS45LDEuNi0zLjJWMjcgQzQ4LDI1LjksNDcuMSwyNSw0NiwyNXoiLz4mI3hhOzwvc3ZnPg==;fontSize=23;strokeWidth=6;fontStyle=1" vertex="1" parent="1">
          <mxGeometry x="670" y="530" width="110" height="110" as="geometry" />
        </mxCell>
        <mxCell id="gXDINnruX9Vw-Q4mHqaS-2" value="&lt;br&gt;&lt;br style=&quot;forced-color-adjust: none; color: rgb(0, 0, 0); font-family: Helvetica; font-size: 11px; font-style: normal; font-variant-ligatures: normal; font-variant-caps: normal; font-weight: 400; letter-spacing: normal; orphans: 2; text-align: center; text-indent: 0px; text-transform: none; widows: 2; word-spacing: 0px; -webkit-text-stroke-width: 0px; white-space: nowrap; text-decoration-thickness: initial; text-decoration-style: initial; text-decoration-color: initial;&quot;&gt;&lt;span style=&quot;forced-color-adjust: none; color: rgb(0, 0, 0); font-family: Helvetica; font-style: normal; font-variant-ligatures: normal; font-variant-caps: normal; letter-spacing: normal; orphans: 2; text-align: center; text-indent: 0px; text-transform: none; widows: 2; word-spacing: 0px; -webkit-text-stroke-width: 0px; white-space: nowrap; text-decoration-thickness: initial; text-decoration-style: initial; text-decoration-color: initial; font-size: 23px;&quot;&gt;&lt;b&gt;Frontend&lt;/b&gt;&lt;/span&gt;&lt;div&gt;&lt;br/&gt;&lt;/div&gt;" style="image;aspect=fixed;html=1;points=[];align=center;fontSize=12;image=img/lib/azure2/networking/Front_Doors.svg;" vertex="1" parent="1">
          <mxGeometry x="50" y="70" width="102" height="90" as="geometry" />
        </mxCell>
        <mxCell id="gXDINnruX9Vw-Q4mHqaS-3" value="&lt;br&gt;&lt;br style=&quot;forced-color-adjust: none;&quot;&gt;&lt;br style=&quot;forced-color-adjust: none; color: rgb(0, 0, 0); font-family: Helvetica; font-size: 11px; font-style: normal; font-variant-ligatures: normal; font-variant-caps: normal; font-weight: 400; letter-spacing: normal; orphans: 2; text-align: center; text-indent: 0px; text-transform: none; widows: 2; word-spacing: 0px; -webkit-text-stroke-width: 0px; white-space: nowrap; text-decoration-thickness: initial; text-decoration-style: initial; text-decoration-color: initial;&quot;&gt;&lt;span style=&quot;forced-color-adjust: none; color: rgb(0, 0, 0); font-family: Helvetica; font-style: normal; font-variant-ligatures: normal; font-variant-caps: normal; letter-spacing: normal; orphans: 2; text-align: center; text-indent: 0px; text-transform: none; widows: 2; word-spacing: 0px; -webkit-text-stroke-width: 0px; white-space: nowrap; text-decoration-thickness: initial; text-decoration-style: initial; text-decoration-color: initial; font-size: 23px;&quot;&gt;&lt;b style=&quot;forced-color-adjust: none;&quot;&gt;Backend&lt;/b&gt;&lt;/span&gt;&lt;div style=&quot;forced-color-adjust: none;&quot;&gt;&lt;br style=&quot;forced-color-adjust: none; color: rgb(0, 0, 0); font-family: Helvetica; font-size: 12px; font-style: normal; font-variant-ligatures: normal; font-variant-caps: normal; font-weight: 400; letter-spacing: normal; orphans: 2; text-align: center; text-indent: 0px; text-transform: none; widows: 2; word-spacing: 0px; -webkit-text-stroke-width: 0px; white-space: nowrap; background-color: rgb(255, 255, 255); text-decoration-thickness: initial; text-decoration-style: initial; text-decoration-color: initial;&quot;&gt;&lt;br&gt;&lt;br&gt;&lt;/div&gt;" style="image;aspect=fixed;html=1;points=[];align=center;fontSize=12;image=img/lib/azure2/networking/Front_Doors.svg;" vertex="1" parent="1">
          <mxGeometry x="311" y="540" width="102" height="90" as="geometry" />
        </mxCell>
        <mxCell id="gXDINnruX9Vw-Q4mHqaS-4" value="" style="endArrow=classic;startArrow=classic;html=1;rounded=0;entryX=0;entryY=0.5;entryDx=0;entryDy=0;" edge="1" parent="1" source="gXDINnruX9Vw-Q4mHqaS-3" target="gXDINnruX9Vw-Q4mHqaS-1">
          <mxGeometry width="50" height="50" relative="1" as="geometry">
            <mxPoint x="430" y="430" as="sourcePoint" />
            <mxPoint x="480" y="380" as="targetPoint" />
          </mxGeometry>
        </mxCell>
        <mxCell id="gXDINnruX9Vw-Q4mHqaS-5" value="&#xa;&lt;b style=&quot;forced-color-adjust: none; color: rgb(0, 0, 0); font-family: Helvetica; font-size: 23px; font-style: normal; font-variant-ligatures: normal; font-variant-caps: normal; letter-spacing: normal; orphans: 2; text-align: center; text-indent: 0px; text-transform: none; widows: 2; word-spacing: 0px; -webkit-text-stroke-width: 0px; white-space: nowrap; background-color: rgb(255, 255, 255); text-decoration-thickness: initial; text-decoration-style: initial; text-decoration-color: initial;&quot;&gt;Api rest full&lt;/b&gt;&#xa;&#xa;" style="endArrow=classic;startArrow=classic;html=1;rounded=0;" edge="1" parent="1" source="gXDINnruX9Vw-Q4mHqaS-3" target="gXDINnruX9Vw-Q4mHqaS-2">
          <mxGeometry width="50" height="50" relative="1" as="geometry">
            <mxPoint x="300" y="440" as="sourcePoint" />
            <mxPoint x="350" y="390" as="targetPoint" />
          </mxGeometry>
        </mxCell>
        <mxCell id="gXDINnruX9Vw-Q4mHqaS-6" value="&lt;b style=&quot;forced-color-adjust: none; color: rgb(0, 0, 0); font-family: Helvetica; font-size: 23px; font-style: normal; font-variant-ligatures: normal; font-variant-caps: normal; letter-spacing: normal; orphans: 2; text-align: center; text-indent: 0px; text-transform: none; widows: 2; word-spacing: 0px; -webkit-text-stroke-width: 0px; white-space: nowrap; background-color: rgb(255, 255, 255); text-decoration-thickness: initial; text-decoration-style: initial; text-decoration-color: initial;&quot;&gt;Integración en la Nube&lt;/b&gt;" style="image;aspect=fixed;perimeter=ellipsePerimeter;html=1;align=center;shadow=0;dashed=0;spacingTop=3;image=img/lib/active_directory/internet_cloud.svg;" vertex="1" parent="1">
          <mxGeometry x="580" y="75" width="126.99" height="80" as="geometry" />
        </mxCell>
        <mxCell id="gXDINnruX9Vw-Q4mHqaS-7" value="" style="endArrow=classic;startArrow=classic;html=1;rounded=0;" edge="1" parent="1" source="gXDINnruX9Vw-Q4mHqaS-2" target="gXDINnruX9Vw-Q4mHqaS-6">
          <mxGeometry width="50" height="50" relative="1" as="geometry">
            <mxPoint x="309" y="450" as="sourcePoint" />
            <mxPoint x="234" y="300" as="targetPoint" />
          </mxGeometry>
        </mxCell>
        <mxCell id="gXDINnruX9Vw-Q4mHqaS-8" value="&lt;font style=&quot;font-size: 23px;&quot;&gt;&lt;b&gt;Api rest full&lt;/b&gt;&lt;/font&gt;" style="endArrow=classic;startArrow=classic;html=1;rounded=0;exitX=0.603;exitY=0.041;exitDx=0;exitDy=0;exitPerimeter=0;" edge="1" parent="1" source="gXDINnruX9Vw-Q4mHqaS-3" target="gXDINnruX9Vw-Q4mHqaS-6">
          <mxGeometry x="-0.2202" y="28" width="50" height="50" relative="1" as="geometry">
            <mxPoint x="262" y="255" as="sourcePoint" />
            <mxPoint x="450" y="290" as="targetPoint" />
            <mxPoint as="offset" />
          </mxGeometry>
        </mxCell>
      </root>
    </mxGraphModel>
  </diagram>
</mxfile>
